<svg width="39" height="44" viewBox="0 0 39 44" fill="none" xmlns="http://www.w3.org/2000/svg">
<path d="M34 24.5C35 24.5 37.1 25 37.5 27C38 29.5 38.5 32 36 33.5C33.5 35 32.5 35 32 35" stroke="black" stroke-width="2" stroke-linecap="round"/>
<path d="M10 42.5H22.5" stroke="black" stroke-width="2" stroke-linecap="round"/>
<path d="M14.0004 18.5C12.3337 17.3333 9.50039 14.7 11.5004 13.5C14.0004 12 17 10.5 16.5 8.5C16 6.5 14 5.5 13.5 5" stroke="black" stroke-width="2" stroke-linecap="round"/>
<path d="M18.5 14C19.6667 13.5 22 12 22 10C22 7.5 19 6 20 4C20.8 2.4 22 1.33333 22.5 1" stroke="black" stroke-width="2" stroke-linecap="round"/>
<path d="M30.9199 21.5H1V29.5L6 37L11.5 40H20.5L26.5 37L30.9199 29.5V21.5Z" stroke="black" stroke-width="2" stroke-linecap="round"/>
</svg>
