<svg width="101" height="89" viewBox="0 0 101 89" fill="none" xmlns="http://www.w3.org/2000/svg">
<path d="M21.5225 0C33.4091 0 43.0457 9.6359 43.0459 21.5225C43.0459 33.4092 33.4092 43.0459 21.5225 43.0459C9.6359 43.0457 0 33.4091 0 21.5225C0.00022471 9.63603 9.63603 0.000224724 21.5225 0ZM21.5225 34.9023C19.9163 34.9026 18.6143 36.2044 18.6143 37.8105C18.6143 39.4167 19.9164 40.7185 21.5225 40.7188C23.1287 40.7188 24.4316 39.4168 24.4316 37.8105C24.4316 36.2042 23.1288 34.9023 21.5225 34.9023ZM11.0527 29.085C9.44652 29.085 8.14372 30.387 8.14355 31.9932C8.14355 33.5995 9.44642 34.9023 11.0527 34.9023C12.6588 34.9021 13.9609 33.5993 13.9609 31.9932C13.9608 30.3871 12.6587 29.0852 11.0527 29.085ZM31.9932 29.085C30.3871 29.0851 29.0851 30.3871 29.085 31.9932C29.085 33.5994 30.387 34.9022 31.9932 34.9023C33.5995 34.9023 34.9023 33.5995 34.9023 31.9932C34.9022 30.387 33.5994 29.085 31.9932 29.085ZM5.23535 18.6143C3.62917 18.6143 2.32737 19.9163 2.32715 21.5225C2.32715 23.1288 3.62903 24.4316 5.23535 24.4316C6.84164 24.4316 8.14355 23.1288 8.14355 21.5225C8.14333 19.9164 6.84151 18.6143 5.23535 18.6143ZM37.8105 18.6143C36.2044 18.6143 34.9026 19.9163 34.9023 21.5225C34.9023 23.1288 36.2042 24.4316 37.8105 24.4316C39.4168 24.4316 40.7188 23.1287 40.7188 21.5225C40.7185 19.9164 39.4167 18.6143 37.8105 18.6143ZM11.0527 8.14355C9.44642 8.14355 8.14355 9.44642 8.14355 11.0527C8.1438 12.6588 9.44656 13.9609 11.0527 13.9609C12.6587 13.9607 13.9607 12.6587 13.9609 11.0527C13.9609 9.44656 12.6588 8.1438 11.0527 8.14355ZM31.9932 8.14355C30.387 8.14372 29.085 9.44652 29.085 11.0527C29.0852 12.6587 30.3871 13.9608 31.9932 13.9609C33.5993 13.9609 34.9021 12.6588 34.9023 11.0527C34.9023 9.44642 33.5995 8.14355 31.9932 8.14355ZM21.5225 2.32715C19.9163 2.32737 18.6143 3.62917 18.6143 5.23535C18.6143 6.84151 19.9164 8.14333 21.5225 8.14355C23.1288 8.14355 24.4316 6.84164 24.4316 5.23535C24.4316 3.62903 23.1288 2.32715 21.5225 2.32715Z" fill="black"/>
<path d="M64.5693 0C76.456 0 86.0925 9.6359 86.0928 21.5225C86.0928 33.4092 76.4561 43.0459 64.5693 43.0459C52.6827 43.0458 43.0469 33.4091 43.0469 21.5225C43.0471 9.63599 52.6828 0.000145385 64.5693 0ZM64.5693 34.9023C62.9631 34.9025 61.6611 36.2043 61.6611 37.8105C61.6612 39.4167 62.9632 40.7186 64.5693 40.7188C66.1756 40.7188 67.4785 39.4168 67.4785 37.8105C67.4785 36.2042 66.1757 34.9023 64.5693 34.9023ZM54.0986 29.085C52.4926 29.0852 51.1906 30.3871 51.1904 31.9932C51.1904 33.5994 52.4925 34.9021 54.0986 34.9023C55.705 34.9023 57.0078 33.5995 57.0078 31.9932C57.0077 30.387 55.7049 29.085 54.0986 29.085ZM75.04 29.085C73.4339 29.085 72.132 30.387 72.1318 31.9932C72.1318 33.5994 73.4338 34.9023 75.04 34.9023C76.6464 34.9023 77.9482 33.5995 77.9482 31.9932C77.9481 30.387 76.6463 29.085 75.04 29.085ZM48.2822 18.6143C46.676 18.6143 45.3733 19.9163 45.373 21.5225C45.373 23.1288 46.6759 24.4316 48.2822 24.4316C49.8885 24.4315 51.1904 23.1287 51.1904 21.5225C51.1902 19.9164 49.8883 18.6144 48.2822 18.6143ZM80.8574 18.6143C79.2512 18.6143 77.9485 19.9163 77.9482 21.5225C77.9482 23.1288 79.2511 24.4316 80.8574 24.4316C82.4636 24.4315 83.7656 23.1287 83.7656 21.5225C83.7654 19.9164 82.4635 18.6144 80.8574 18.6143ZM54.0986 8.14355C52.4925 8.14376 51.1904 9.44654 51.1904 11.0527C51.1907 12.6587 52.4926 13.9607 54.0986 13.9609C55.7048 13.9609 57.0076 12.6588 57.0078 11.0527C57.0078 9.44642 55.705 8.14355 54.0986 8.14355ZM75.04 8.14355C73.4338 8.14364 72.1318 9.44647 72.1318 11.0527C72.1321 12.6588 73.4339 13.9609 75.04 13.9609C76.6462 13.9609 77.948 12.6588 77.9482 11.0527C77.9482 9.44642 76.6464 8.14355 75.04 8.14355ZM64.5693 2.32715C62.9631 2.32729 61.6611 3.62912 61.6611 5.23535C61.6612 6.84155 62.9632 8.14341 64.5693 8.14355C66.1756 8.14355 67.4785 6.84164 67.4785 5.23535C67.4785 3.62903 66.1757 2.32715 64.5693 2.32715Z" fill="black"/>
<rect y="43" width="43" height="43" fill="black"/>
<path d="M43 64.5L86.5 43.2824V85.7176L43 64.5Z" fill="black"/>
</svg>
