<svg width="23" height="30" viewBox="0 0 23 30" fill="none" xmlns="http://www.w3.org/2000/svg">
<path d="M11.5 1.5C14.5306 1.50005 17.1191 4.11186 17.1191 7.5C17.119 10.888 14.5305 13.4999 11.5 13.5C8.46943 13.5 5.88098 10.8881 5.88086 7.5C5.88086 4.11182 8.46936 1.5 11.5 1.5Z" stroke="black" stroke-width="3"/>
<path d="M11.5 17.6562C14.4496 17.6562 17.0478 18.3788 18.8584 19.4688C20.698 20.5762 21.5 21.8989 21.5 23.0791C21.5 24.2593 20.698 25.582 18.8584 26.6895C17.0478 27.7794 14.4496 28.502 11.5 28.502C8.55036 28.502 5.95219 27.7794 4.1416 26.6895C2.302 25.582 1.5 24.2593 1.5 23.0791C1.50001 21.8989 2.302 20.5762 4.1416 19.4688C5.95219 18.3788 8.55036 17.6562 11.5 17.6562Z" stroke="black" stroke-width="3"/>
</svg>
