<svg width="37" height="37" viewBox="0 0 37 37" fill="none" xmlns="http://www.w3.org/2000/svg">
<path d="M35.423 13.1088L32.2339 9.91976C31.9766 9.66593 31.6336 9.51772 31.2724 9.50434C30.9112 9.49096 30.5581 9.61339 30.2828 9.84749C29.8576 10.2094 29.3121 10.3983 28.7542 10.3769C28.1963 10.3555 27.6669 10.1253 27.2707 9.73187C26.8776 9.33577 26.6475 8.80645 26.6261 8.24875C26.6046 7.69105 26.7935 7.14564 27.1551 6.72056C27.3892 6.44519 27.5116 6.09211 27.4983 5.73093C27.4849 5.36975 27.3367 5.02668 27.0828 4.76939L23.8909 1.57669C23.6211 1.30746 23.2556 1.15625 22.8745 1.15625C22.4933 1.15625 22.1278 1.30746 21.858 1.57669L16.7742 6.65986C16.4603 6.97486 16.2236 7.35824 16.0826 7.77997C16.0551 7.86106 16.0093 7.93473 15.9488 7.99526C15.8883 8.05579 15.8146 8.10156 15.7335 8.12902C15.3116 8.27001 14.9282 8.507 14.6134 8.82132L1.57669 21.858C1.30746 22.1278 1.15625 22.4933 1.15625 22.8745C1.15625 23.2556 1.30746 23.6211 1.57669 23.8909L4.76939 27.08C5.02668 27.3338 5.36975 27.482 5.73093 27.4954C6.09211 27.5088 6.44519 27.3863 6.72056 27.1522C7.14468 26.7874 7.69098 26.5964 8.25 26.6174C8.80902 26.6384 9.33946 26.8698 9.73503 27.2654C10.1306 27.661 10.3621 28.1914 10.3831 28.7504C10.404 29.3095 10.213 29.8558 9.84822 30.2799C9.61412 30.5552 9.49168 30.9083 9.50506 31.2695C9.51844 31.6307 9.66665 31.9738 9.92048 32.231L13.1096 35.4201C13.3793 35.6894 13.7449 35.8406 14.126 35.8406C14.5071 35.8406 14.8726 35.6894 15.1424 35.4201L28.1791 22.3834C28.4933 22.0688 28.7302 21.6856 28.8714 21.264C28.8988 21.1827 28.9446 21.1088 29.0052 21.0481C29.0659 20.9874 29.1398 20.9416 29.2212 20.9143C29.6427 20.7732 30.0258 20.5365 30.3406 20.2227L35.4237 15.1388C35.692 14.8691 35.8425 14.5041 35.8424 14.1237C35.8423 13.7433 35.6915 13.3784 35.423 13.1088ZM18.9197 10.9662C18.8123 11.0736 18.6849 11.1588 18.5446 11.2169C18.4043 11.275 18.2539 11.3049 18.102 11.3049C17.9502 11.3049 17.7998 11.275 17.6595 11.2169C17.5192 11.1588 17.3917 11.0736 17.2843 10.9662L16.4526 10.1344C16.241 9.91646 16.1237 9.62403 16.126 9.32031C16.1283 9.01659 16.25 8.72596 16.4648 8.51124C16.6796 8.29652 16.9703 8.17495 17.274 8.17279C17.5777 8.17064 17.8701 8.28808 18.0879 8.49974L18.9197 9.33079C19.0271 9.43816 19.1123 9.56564 19.1704 9.70594C19.2286 9.84624 19.2585 9.99662 19.2585 10.1485C19.2585 10.3003 19.2286 10.4507 19.1704 10.591C19.1123 10.7313 19.0271 10.8588 18.9197 10.9662ZM22.0994 14.1459C21.8826 14.3625 21.5886 14.4842 21.2821 14.4842C20.9756 14.4842 20.6816 14.3625 20.4648 14.1459L19.6698 13.3509C19.5625 13.2436 19.4773 13.1161 19.4192 12.9758C19.3611 12.8355 19.3311 12.6851 19.3311 12.5332C19.3311 12.3814 19.3611 12.231 19.4192 12.0907C19.4773 11.9504 19.5625 11.8229 19.6698 11.7156C19.8867 11.4987 20.1808 11.3769 20.4875 11.3769C20.6394 11.3769 20.7898 11.4068 20.93 11.4649C21.0703 11.523 21.1978 11.6082 21.3052 11.7156L22.1001 12.5105C22.2079 12.6178 22.2934 12.7454 22.3518 12.8859C22.4102 13.0264 22.4403 13.177 22.4403 13.3291C22.4404 13.4812 22.4104 13.6319 22.3522 13.7724C22.2939 13.9129 22.2085 14.0406 22.1009 14.148L22.0994 14.1459ZM25.2791 17.3255C25.1717 17.4329 25.0442 17.5181 24.9039 17.5763C24.7636 17.6344 24.6133 17.6643 24.4614 17.6643C24.3095 17.6643 24.1592 17.6344 24.0189 17.5763C23.8786 17.5181 23.7511 17.4329 23.6437 17.3255L22.8488 16.5306C22.6372 16.3127 22.5199 16.0203 22.5222 15.7165C22.5245 15.4128 22.6462 15.1222 22.861 14.9075C23.0758 14.6928 23.3665 14.5712 23.6702 14.569C23.974 14.5669 24.2663 14.6843 24.4842 14.896L25.2791 15.6909C25.3872 15.7981 25.473 15.9255 25.5317 16.066C25.5904 16.2064 25.6208 16.3571 25.6211 16.5093C25.6214 16.6615 25.5917 16.8123 25.5336 16.953C25.4756 17.0936 25.3903 17.2215 25.2827 17.3292L25.2791 17.3255ZM28.4899 20.5443C28.3825 20.6516 28.255 20.7368 28.1147 20.795C27.9744 20.8531 27.824 20.883 27.6722 20.883C27.5203 20.883 27.3699 20.8531 27.2296 20.795C27.0893 20.7368 26.9619 20.6516 26.8545 20.5443L26.0278 19.7132C25.9181 19.6061 25.8308 19.4784 25.771 19.3373C25.7112 19.1962 25.68 19.0446 25.6793 18.8914C25.6785 18.7381 25.7083 18.5863 25.7668 18.4446C25.8252 18.303 25.9113 18.1744 26.0199 18.0663C26.1285 17.9582 26.2576 17.8728 26.3995 17.815C26.5414 17.7572 26.6934 17.7282 26.8466 17.7297C26.9999 17.7311 27.1513 17.7631 27.2921 17.8236C27.4329 17.8841 27.5602 17.972 27.6668 18.0822L28.4942 18.9125C28.6015 19.0199 28.6867 19.1474 28.7447 19.2878C28.8028 19.4281 28.8326 19.5785 28.8326 19.7303C28.8325 19.8822 28.8025 20.0326 28.7443 20.1728C28.6862 20.3131 28.6009 20.4405 28.4935 20.5479L28.4899 20.5443Z" fill="black"/>
</svg>
