<svg width="495" height="526" viewBox="0 0 495 526" fill="none" xmlns="http://www.w3.org/2000/svg">
<path d="M198 321C198 304.984 210.984 292 227 292H274V526H198V321Z" fill="black"/>
<path fill-rule="evenodd" clip-rule="evenodd" d="M150.715 0.39766C163.749 -0.527493 176.631 0.161491 189.359 2.46602C202.334 4.48571 214.635 8.2911 226.26 13.882C238.132 19.1881 249.063 26.2991 259.052 35.2141L211.859 99.1154C207.814 94.8579 202.999 91.0565 197.415 87.7102C192.096 84.345 185.904 81.8433 178.837 80.2063C172.018 78.2843 164.218 77.6349 155.44 78.258C146.396 78.9 137.864 81.1097 129.845 84.8869C122.073 88.3793 115.336 93.2687 109.633 99.5549C104.197 105.822 100.052 113.335 97.1977 122.092C94.344 130.849 93.3139 140.814 94.1069 151.986C94.8244 162.093 97.2043 171.148 101.248 179.149C105.291 187.149 110.712 193.849 117.511 199.247C124.311 204.646 132.346 208.62 141.617 211.17C150.887 213.72 161.108 214.599 172.28 213.806C180.26 213.239 187.756 211.505 194.768 208.601C201.78 205.697 208.08 202.176 213.667 198.036C219.236 193.631 223.978 188.883 227.894 183.793L234.159 177.264C234.485 176.918 234.814 176.573 235.15 176.231L235.239 176.139L235.24 176.14C241.99 169.278 250.712 163.111 261.405 157.641C272.871 151.774 285.538 147.107 299.405 143.641C313.271 140.441 327.272 138.841 341.405 138.841C363.805 138.841 384.471 142.441 403.405 149.641C422.071 156.841 438.338 166.841 452.205 179.641C465.805 192.707 476.338 208.175 483.804 226.041C491.271 243.908 495.004 263.508 495.004 284.841C495.004 306.174 491.271 325.774 483.804 343.641C476.071 361.507 465.271 376.841 451.405 389.641C437.538 402.707 421.138 412.841 402.205 420.041C383.005 427.241 361.938 430.841 339.004 430.841C325.938 430.841 313.138 429.241 300.605 426.041C287.805 423.108 275.805 418.441 264.605 412.041C253.138 405.908 242.738 398.041 233.405 388.441L285.004 328.041C288.738 332.575 293.272 336.707 298.605 340.441C303.672 344.174 309.672 347.108 316.605 349.241C323.271 351.641 331.005 352.841 339.804 352.841C348.871 352.841 357.538 351.241 365.804 348.041C373.804 345.108 380.871 340.708 387.004 334.841C392.871 328.974 397.538 321.775 401.004 313.241C404.471 304.708 406.205 294.841 406.205 283.641C406.205 273.508 404.471 264.308 401.004 256.041C397.538 247.775 392.605 240.708 386.205 234.841C379.805 228.974 372.071 224.441 363.004 221.241C353.938 218.041 343.805 216.441 332.605 216.441C324.605 216.441 317.004 217.641 309.804 220.041C302.604 222.441 296.071 225.508 290.205 229.241C284.338 233.241 279.271 237.641 275.004 242.441L213.667 226.041C213.253 226.898 268.811 251.377 268.217 251.885C261.853 259.704 258.344 260.84 247.464 267.417C236.442 274.081 224.138 279.633 210.551 284.072C196.946 288.246 183.094 290.833 168.997 291.834C146.653 293.42 125.783 291.293 106.387 285.451C87.2576 279.591 70.3236 270.768 55.5854 258.982C41.0945 246.911 29.4927 232.229 20.7798 214.936C12.0669 197.643 6.95531 178.356 5.44481 157.076C3.93435 135.797 6.27075 115.981 12.4536 97.6311C18.9025 79.2617 28.5896 63.202 41.5151 49.4523C54.4218 35.4367 70.0629 24.1672 88.4389 15.6447C107.081 7.10343 127.84 2.02144 150.715 0.39766ZM227.934 183.846L227.937 183.843L227.918 183.825L227.934 183.846Z" fill="black"/>
<path fill-rule="evenodd" clip-rule="evenodd" d="M145.715 0.39766C158.749 -0.527493 171.631 0.161491 184.359 2.46602C197.334 4.48571 209.635 8.2911 221.26 13.882C233.132 19.1881 244.063 26.2991 254.052 35.2141L206.859 99.1154C202.814 94.8579 197.999 91.0565 192.415 87.7102C187.096 84.345 180.904 81.8433 173.837 80.2063C167.018 78.2843 159.218 77.6349 150.44 78.258C141.396 78.9 132.864 81.1097 124.845 84.8869C117.073 88.3793 110.336 93.2687 104.633 99.5549C99.1967 105.822 95.0515 113.335 92.1977 122.092C89.344 130.849 88.3139 140.814 89.1069 151.986C89.8244 162.093 92.2043 171.148 96.2475 179.149C100.291 187.149 105.712 193.849 112.511 199.247C119.311 204.646 127.346 208.62 136.617 211.17C145.887 213.72 156.108 214.599 167.28 213.806C175.26 213.239 182.756 211.505 189.768 208.601C196.78 205.697 203.08 202.176 208.667 198.036C214.236 193.631 218.978 188.883 222.894 183.793L229.159 177.264C229.485 176.918 229.814 176.573 230.15 176.231L230.239 176.139L230.24 176.14C236.99 169.278 245.712 163.111 256.405 157.641C267.871 151.774 280.538 147.107 294.405 143.641C308.271 140.441 322.272 138.841 336.405 138.841C358.805 138.841 379.471 142.441 398.405 149.641C417.071 156.841 433.338 166.841 447.205 179.641C460.805 192.707 471.338 208.175 478.804 226.041C486.271 243.908 490.004 263.508 490.004 284.841C490.004 306.174 486.271 325.774 478.804 343.641C471.071 361.507 460.271 376.841 446.405 389.641C432.538 402.707 416.138 412.841 397.205 420.041C378.005 427.241 356.938 430.841 334.004 430.841C320.938 430.841 308.138 429.241 295.605 426.041C282.805 423.108 270.805 418.441 259.605 412.041C248.138 405.908 237.738 398.041 228.405 388.441L280.004 328.041C283.738 332.575 288.272 336.707 293.605 340.441C298.672 344.174 304.672 347.108 311.605 349.241C318.271 351.641 326.005 352.841 334.804 352.841C343.871 352.841 352.538 351.241 360.804 348.041C368.804 345.108 375.871 340.708 382.004 334.841C387.871 328.974 392.538 321.775 396.004 313.241C399.471 304.708 401.205 294.841 401.205 283.641C401.205 273.508 399.471 264.308 396.004 256.041C392.538 247.775 387.605 240.708 381.205 234.841C374.805 228.974 367.071 224.441 358.004 221.241C348.938 218.041 338.805 216.441 327.605 216.441C319.605 216.441 312.004 217.641 304.804 220.041C297.604 222.441 291.071 225.508 285.205 229.241C279.338 233.241 274.271 237.641 270.004 242.441L208.667 226.041C208.253 226.898 263.811 251.377 263.217 251.885C256.853 259.704 253.344 260.84 242.464 267.417C231.442 274.081 219.138 279.633 205.551 284.072C191.946 288.246 178.094 290.833 163.997 291.834C141.653 293.42 120.783 291.293 101.387 285.451C82.2576 279.591 65.3236 270.768 50.5854 258.982C36.0945 246.911 24.4927 232.229 15.7798 214.936C7.06688 197.643 1.95531 178.356 0.444812 157.076C-1.06565 135.797 1.27075 115.981 7.4536 97.6311C13.9025 79.2617 23.5896 63.202 36.5151 49.4523C49.4218 35.4367 65.0629 24.1672 83.4389 15.6447C102.081 7.10343 122.84 2.02144 145.715 0.39766ZM222.934 183.846L222.937 183.843L222.918 183.825L222.934 183.846Z" fill="#434343"/>
<path d="M195 318C195 301.984 207.984 289 224 289H271V523H195V318Z" fill="#434343"/>
</svg>
