<svg width="200" height="213" viewBox="0 0 200 213" fill="none" xmlns="http://www.w3.org/2000/svg">
<mask id="path-1-inside-1_1785_2317" fill="white">
<path d="M79.9993 129.987C79.9993 123.501 85.2452 118.243 91.7164 118.243H110.706V213H79.9993V129.987Z"/>
<path fill-rule="evenodd" clip-rule="evenodd" d="M60.8945 0.16103C66.1607 -0.213605 71.3652 0.0653948 76.508 0.998597C81.7506 1.81645 86.7205 3.35742 91.4175 5.62143C96.2142 7.77007 100.63 10.6496 104.667 14.2597L85.5988 40.1361C83.9645 38.412 82.019 36.8727 79.7627 35.5176C77.614 34.1549 75.1121 33.1419 72.2569 32.479C69.5014 31.7007 66.3501 31.4377 62.8035 31.69C59.1494 31.95 55.7023 32.8448 52.4622 34.3744C49.322 35.7886 46.5999 37.7685 44.2959 40.314C42.0993 42.852 40.4245 45.8941 39.2715 49.4403C38.1185 52.9865 37.7023 57.0215 38.0227 61.5455C38.3125 65.6386 39.2741 69.3052 40.9077 72.545C42.5413 75.7846 44.7317 78.4976 47.4789 80.6838C50.226 82.87 53.4727 84.4792 57.2184 85.5119C60.9639 86.5444 65.0936 86.9003 69.6074 86.5792C72.8316 86.3498 75.8604 85.6473 78.6935 84.4714C81.5265 83.2956 84.072 81.8696 86.3295 80.1934C88.5794 78.4095 90.4953 76.4869 92.0776 74.4258L94.6087 71.7818C94.7404 71.6417 94.8736 71.502 95.0092 71.3634L95.0451 71.3262L95.0455 71.3266C97.773 68.5479 101.297 66.0508 105.617 63.8355C110.25 61.4599 115.368 59.5701 120.971 58.1663C126.573 56.8705 132.23 56.2227 137.94 56.2227C146.99 56.2227 155.341 57.6804 162.99 60.596C170.532 63.5116 177.105 67.561 182.707 72.7443C188.202 78.0355 192.458 84.2988 195.475 91.5338C198.492 98.7688 200 106.706 200 115.344C200 123.983 198.492 131.92 195.475 139.155C192.35 146.39 187.987 152.599 182.384 157.782C176.782 163.074 170.155 167.177 162.505 170.093C154.748 173.008 146.236 174.466 136.97 174.466C131.691 174.466 126.519 173.818 121.455 172.522C116.284 171.335 111.435 169.445 106.91 166.853C102.277 164.37 98.0751 161.184 94.3041 157.296L115.152 132.838C116.661 134.674 118.493 136.347 120.647 137.859C122.695 139.371 125.119 140.559 127.92 141.423C130.614 142.395 133.738 142.88 137.293 142.88C140.957 142.88 144.458 142.233 147.798 140.937C151.031 139.749 153.886 137.967 156.364 135.592C158.734 133.216 160.62 130.3 162.021 126.845C163.421 123.389 164.122 119.394 164.122 114.858C164.122 110.755 163.421 107.03 162.021 103.682C160.62 100.335 158.627 97.4729 156.041 95.0972C153.455 92.7215 150.33 90.886 146.667 89.5901C143.004 88.2944 138.91 87.6461 134.385 87.6461C131.152 87.6461 128.081 88.1323 125.172 89.1041C122.263 90.076 119.624 91.3179 117.253 92.8297C114.883 94.4494 112.836 96.2309 111.112 98.1746L86.3295 91.5338C86.1621 91.8807 108.61 101.793 108.369 101.999C105.798 105.166 104.381 105.625 99.9847 108.289C95.5312 110.987 90.5598 113.235 85.0705 115.033C79.5735 116.723 73.9768 117.771 68.2808 118.176C59.2531 118.818 50.8209 117.957 42.9843 115.592C35.2553 113.218 28.4133 109.645 22.4586 104.873C16.6037 99.9848 11.9161 94.0394 8.39579 87.0367C4.87546 80.034 2.8102 72.224 2.1999 63.607C1.58962 54.9899 2.53361 46.9659 5.03171 39.535C7.63731 32.0965 11.5512 25.5932 16.7736 20.0254C21.9884 14.3498 28.308 9.78634 35.7326 6.33522C43.2646 2.87649 51.6519 0.818569 60.8945 0.16103ZM92.0938 74.4471L92.0949 74.4459L92.0874 74.4388L92.0938 74.4471Z"/>
<path fill-rule="evenodd" clip-rule="evenodd" d="M58.8744 0.16103C64.1405 -0.213605 69.3451 0.0653948 74.4878 0.998597C79.7304 1.81645 84.7003 3.35742 89.3973 5.62143C94.194 7.77007 98.6103 10.6496 102.646 14.2597L83.5786 40.1361C81.9443 38.412 79.9988 36.8727 77.7426 35.5176C75.5938 34.1549 73.0919 33.1419 70.2367 32.479C67.4812 31.7007 64.3299 31.4377 60.7833 31.69C57.1293 31.95 53.6821 32.8448 50.4421 34.3744C47.3018 35.7886 44.5797 37.7685 42.2757 40.314C40.0791 42.852 38.4043 45.8941 37.2513 49.4403C36.0983 52.9865 35.6821 57.0215 36.0025 61.5455C36.2924 65.6386 37.2539 69.3052 38.8876 72.545C40.5212 75.7846 42.7116 78.4976 45.4587 80.6838C48.2058 82.87 51.4526 84.4792 55.1982 85.5119C58.9437 86.5444 63.0734 86.9003 67.5872 86.5792C70.8114 86.3498 73.8402 85.6473 76.6733 84.4714C79.5063 83.2956 82.0518 81.8696 84.3093 80.1934C86.5592 78.4095 88.4752 76.4869 90.0574 74.4258L92.5885 71.7818C92.7202 71.6417 92.8534 71.502 92.989 71.3634L93.0249 71.3262L93.0253 71.3266C95.7528 68.5479 99.2768 66.0508 103.597 63.8355C108.23 61.4599 113.348 59.5701 118.95 58.1663C124.553 56.8705 130.21 56.2227 135.92 56.2227C144.97 56.2227 153.32 57.6804 160.97 60.596C168.512 63.5116 175.084 67.561 180.687 72.7443C186.182 78.0355 190.438 84.2988 193.455 91.5338C196.471 98.7688 197.98 106.706 197.98 115.344C197.98 123.983 196.471 131.92 193.455 139.155C190.33 146.39 185.967 152.599 180.364 157.782C174.761 163.074 168.135 167.177 160.485 170.093C152.728 173.008 144.216 174.466 134.95 174.466C129.671 174.466 124.499 173.818 119.435 172.522C114.264 171.335 109.415 169.445 104.89 166.853C100.257 164.37 96.0549 161.184 92.2839 157.296L113.132 132.838C114.64 134.674 116.472 136.347 118.627 137.859C120.674 139.371 123.099 140.559 125.9 141.423C128.593 142.395 131.718 142.88 135.273 142.88C138.936 142.88 142.438 142.233 145.778 140.937C149.01 139.749 151.866 137.967 154.344 135.592C156.714 133.216 158.6 130.3 160 126.845C161.401 123.389 162.101 119.394 162.101 114.858C162.101 110.755 161.401 107.03 160 103.682C158.6 100.335 156.607 97.4729 154.021 95.0972C151.435 92.7215 148.31 90.886 144.647 89.5901C140.984 88.2944 136.89 87.6461 132.364 87.6461C129.132 87.6461 126.061 88.1323 123.152 89.1041C120.243 90.076 117.603 91.3179 115.233 92.8297C112.863 94.4494 110.816 96.2309 109.092 98.1746L84.3093 91.5338C84.1419 91.8807 106.589 101.793 106.349 101.999C103.778 105.166 102.36 105.625 97.9645 108.289C93.5111 110.987 88.5396 113.235 83.0503 115.033C77.5533 116.723 71.9567 117.771 66.2607 118.176C57.233 118.818 48.8007 117.957 40.9642 115.592C33.2351 113.218 26.3931 109.645 20.4384 104.873C14.5835 99.9848 9.89595 94.0394 6.37561 87.0367C2.85528 80.034 0.790017 72.224 0.17972 63.607C-0.430561 54.9899 0.513431 46.9659 3.01153 39.535C5.61712 32.0965 9.53105 25.5932 14.7535 20.0254C19.9682 14.3498 26.2878 9.78634 33.7124 6.33522C41.2444 2.87649 49.6318 0.818569 58.8744 0.16103ZM90.0736 74.4471L90.0748 74.4459L90.0673 74.4388L90.0736 74.4471Z"/>
<path d="M78.7872 128.772C78.7872 122.286 84.0331 117.029 90.5042 117.029H109.494V211.785H78.7872V128.772Z"/>
</mask>
<path d="M79.9993 129.987C79.9993 123.501 85.2452 118.243 91.7164 118.243H110.706V213H79.9993V129.987Z" fill="#9C9C9C"/>
<path fill-rule="evenodd" clip-rule="evenodd" d="M60.8945 0.16103C66.1607 -0.213605 71.3652 0.0653948 76.508 0.998597C81.7506 1.81645 86.7205 3.35742 91.4175 5.62143C96.2142 7.77007 100.63 10.6496 104.667 14.2597L85.5988 40.1361C83.9645 38.412 82.019 36.8727 79.7627 35.5176C77.614 34.1549 75.1121 33.1419 72.2569 32.479C69.5014 31.7007 66.3501 31.4377 62.8035 31.69C59.1494 31.95 55.7023 32.8448 52.4622 34.3744C49.322 35.7886 46.5999 37.7685 44.2959 40.314C42.0993 42.852 40.4245 45.8941 39.2715 49.4403C38.1185 52.9865 37.7023 57.0215 38.0227 61.5455C38.3125 65.6386 39.2741 69.3052 40.9077 72.545C42.5413 75.7846 44.7317 78.4976 47.4789 80.6838C50.226 82.87 53.4727 84.4792 57.2184 85.5119C60.9639 86.5444 65.0936 86.9003 69.6074 86.5792C72.8316 86.3498 75.8604 85.6473 78.6935 84.4714C81.5265 83.2956 84.072 81.8696 86.3295 80.1934C88.5794 78.4095 90.4953 76.4869 92.0776 74.4258L94.6087 71.7818C94.7404 71.6417 94.8736 71.502 95.0092 71.3634L95.0451 71.3262L95.0455 71.3266C97.773 68.5479 101.297 66.0508 105.617 63.8355C110.25 61.4599 115.368 59.5701 120.971 58.1663C126.573 56.8705 132.23 56.2227 137.94 56.2227C146.99 56.2227 155.341 57.6804 162.99 60.596C170.532 63.5116 177.105 67.561 182.707 72.7443C188.202 78.0355 192.458 84.2988 195.475 91.5338C198.492 98.7688 200 106.706 200 115.344C200 123.983 198.492 131.92 195.475 139.155C192.35 146.39 187.987 152.599 182.384 157.782C176.782 163.074 170.155 167.177 162.505 170.093C154.748 173.008 146.236 174.466 136.97 174.466C131.691 174.466 126.519 173.818 121.455 172.522C116.284 171.335 111.435 169.445 106.91 166.853C102.277 164.37 98.0751 161.184 94.3041 157.296L115.152 132.838C116.661 134.674 118.493 136.347 120.647 137.859C122.695 139.371 125.119 140.559 127.92 141.423C130.614 142.395 133.738 142.88 137.293 142.88C140.957 142.88 144.458 142.233 147.798 140.937C151.031 139.749 153.886 137.967 156.364 135.592C158.734 133.216 160.62 130.3 162.021 126.845C163.421 123.389 164.122 119.394 164.122 114.858C164.122 110.755 163.421 107.03 162.021 103.682C160.62 100.335 158.627 97.4729 156.041 95.0972C153.455 92.7215 150.33 90.886 146.667 89.5901C143.004 88.2944 138.91 87.6461 134.385 87.6461C131.152 87.6461 128.081 88.1323 125.172 89.1041C122.263 90.076 119.624 91.3179 117.253 92.8297C114.883 94.4494 112.836 96.2309 111.112 98.1746L86.3295 91.5338C86.1621 91.8807 108.61 101.793 108.369 101.999C105.798 105.166 104.381 105.625 99.9847 108.289C95.5312 110.987 90.5598 113.235 85.0705 115.033C79.5735 116.723 73.9768 117.771 68.2808 118.176C59.2531 118.818 50.8209 117.957 42.9843 115.592C35.2553 113.218 28.4133 109.645 22.4586 104.873C16.6037 99.9848 11.9161 94.0394 8.39579 87.0367C4.87546 80.034 2.8102 72.224 2.1999 63.607C1.58962 54.9899 2.53361 46.9659 5.03171 39.535C7.63731 32.0965 11.5512 25.5932 16.7736 20.0254C21.9884 14.3498 28.308 9.78634 35.7326 6.33522C43.2646 2.87649 51.6519 0.818569 60.8945 0.16103ZM92.0938 74.4471L92.0949 74.4459L92.0874 74.4388L92.0938 74.4471Z" fill="#9C9C9C"/>
<path fill-rule="evenodd" clip-rule="evenodd" d="M58.8744 0.16103C64.1405 -0.213605 69.3451 0.0653948 74.4878 0.998597C79.7304 1.81645 84.7003 3.35742 89.3973 5.62143C94.194 7.77007 98.6103 10.6496 102.646 14.2597L83.5786 40.1361C81.9443 38.412 79.9988 36.8727 77.7426 35.5176C75.5938 34.1549 73.0919 33.1419 70.2367 32.479C67.4812 31.7007 64.3299 31.4377 60.7833 31.69C57.1293 31.95 53.6821 32.8448 50.4421 34.3744C47.3018 35.7886 44.5797 37.7685 42.2757 40.314C40.0791 42.852 38.4043 45.8941 37.2513 49.4403C36.0983 52.9865 35.6821 57.0215 36.0025 61.5455C36.2924 65.6386 37.2539 69.3052 38.8876 72.545C40.5212 75.7846 42.7116 78.4976 45.4587 80.6838C48.2058 82.87 51.4526 84.4792 55.1982 85.5119C58.9437 86.5444 63.0734 86.9003 67.5872 86.5792C70.8114 86.3498 73.8402 85.6473 76.6733 84.4714C79.5063 83.2956 82.0518 81.8696 84.3093 80.1934C86.5592 78.4095 88.4752 76.4869 90.0574 74.4258L92.5885 71.7818C92.7202 71.6417 92.8534 71.502 92.989 71.3634L93.0249 71.3262L93.0253 71.3266C95.7528 68.5479 99.2768 66.0508 103.597 63.8355C108.23 61.4599 113.348 59.5701 118.95 58.1663C124.553 56.8705 130.21 56.2227 135.92 56.2227C144.97 56.2227 153.32 57.6804 160.97 60.596C168.512 63.5116 175.084 67.561 180.687 72.7443C186.182 78.0355 190.438 84.2988 193.455 91.5338C196.471 98.7688 197.98 106.706 197.98 115.344C197.98 123.983 196.471 131.92 193.455 139.155C190.33 146.39 185.967 152.599 180.364 157.782C174.761 163.074 168.135 167.177 160.485 170.093C152.728 173.008 144.216 174.466 134.95 174.466C129.671 174.466 124.499 173.818 119.435 172.522C114.264 171.335 109.415 169.445 104.89 166.853C100.257 164.37 96.0549 161.184 92.2839 157.296L113.132 132.838C114.64 134.674 116.472 136.347 118.627 137.859C120.674 139.371 123.099 140.559 125.9 141.423C128.593 142.395 131.718 142.88 135.273 142.88C138.936 142.88 142.438 142.233 145.778 140.937C149.01 139.749 151.866 137.967 154.344 135.592C156.714 133.216 158.6 130.3 160 126.845C161.401 123.389 162.101 119.394 162.101 114.858C162.101 110.755 161.401 107.03 160 103.682C158.6 100.335 156.607 97.4729 154.021 95.0972C151.435 92.7215 148.31 90.886 144.647 89.5901C140.984 88.2944 136.89 87.6461 132.364 87.6461C129.132 87.6461 126.061 88.1323 123.152 89.1041C120.243 90.076 117.603 91.3179 115.233 92.8297C112.863 94.4494 110.816 96.2309 109.092 98.1746L84.3093 91.5338C84.1419 91.8807 106.589 101.793 106.349 101.999C103.778 105.166 102.36 105.625 97.9645 108.289C93.5111 110.987 88.5396 113.235 83.0503 115.033C77.5533 116.723 71.9567 117.771 66.2607 118.176C57.233 118.818 48.8007 117.957 40.9642 115.592C33.2351 113.218 26.3931 109.645 20.4384 104.873C14.5835 99.9848 9.89595 94.0394 6.37561 87.0367C2.85528 80.034 0.790017 72.224 0.17972 63.607C-0.430561 54.9899 0.513431 46.9659 3.01153 39.535C5.61712 32.0965 9.53105 25.5932 14.7535 20.0254C19.9682 14.3498 26.2878 9.78634 33.7124 6.33522C41.2444 2.87649 49.6318 0.818569 58.8744 0.16103ZM90.0736 74.4471L90.0748 74.4459L90.0673 74.4388L90.0736 74.4471Z" fill="#9C9C9C"/>
<path d="M78.7872 128.772C78.7872 122.286 84.0331 117.029 90.5042 117.029H109.494V211.785H78.7872V128.772Z" fill="#9C9C9C"/>
<path d="M79.9993 129.987C79.9993 123.501 85.2452 118.243 91.7164 118.243H110.706V213H79.9993V129.987Z" stroke="#9C9C9C" stroke-width="2" mask="url(#path-1-inside-1_1785_2317)"/>
<path fill-rule="evenodd" clip-rule="evenodd" d="M60.8945 0.16103C66.1607 -0.213605 71.3652 0.0653948 76.508 0.998597C81.7506 1.81645 86.7205 3.35742 91.4175 5.62143C96.2142 7.77007 100.63 10.6496 104.667 14.2597L85.5988 40.1361C83.9645 38.412 82.019 36.8727 79.7627 35.5176C77.614 34.1549 75.1121 33.1419 72.2569 32.479C69.5014 31.7007 66.3501 31.4377 62.8035 31.69C59.1494 31.95 55.7023 32.8448 52.4622 34.3744C49.322 35.7886 46.5999 37.7685 44.2959 40.314C42.0993 42.852 40.4245 45.8941 39.2715 49.4403C38.1185 52.9865 37.7023 57.0215 38.0227 61.5455C38.3125 65.6386 39.2741 69.3052 40.9077 72.545C42.5413 75.7846 44.7317 78.4976 47.4789 80.6838C50.226 82.87 53.4727 84.4792 57.2184 85.5119C60.9639 86.5444 65.0936 86.9003 69.6074 86.5792C72.8316 86.3498 75.8604 85.6473 78.6935 84.4714C81.5265 83.2956 84.072 81.8696 86.3295 80.1934C88.5794 78.4095 90.4953 76.4869 92.0776 74.4258L94.6087 71.7818C94.7404 71.6417 94.8736 71.502 95.0092 71.3634L95.0451 71.3262L95.0455 71.3266C97.773 68.5479 101.297 66.0508 105.617 63.8355C110.25 61.4599 115.368 59.5701 120.971 58.1663C126.573 56.8705 132.23 56.2227 137.94 56.2227C146.99 56.2227 155.341 57.6804 162.99 60.596C170.532 63.5116 177.105 67.561 182.707 72.7443C188.202 78.0355 192.458 84.2988 195.475 91.5338C198.492 98.7688 200 106.706 200 115.344C200 123.983 198.492 131.92 195.475 139.155C192.35 146.39 187.987 152.599 182.384 157.782C176.782 163.074 170.155 167.177 162.505 170.093C154.748 173.008 146.236 174.466 136.97 174.466C131.691 174.466 126.519 173.818 121.455 172.522C116.284 171.335 111.435 169.445 106.91 166.853C102.277 164.37 98.0751 161.184 94.3041 157.296L115.152 132.838C116.661 134.674 118.493 136.347 120.647 137.859C122.695 139.371 125.119 140.559 127.92 141.423C130.614 142.395 133.738 142.88 137.293 142.88C140.957 142.88 144.458 142.233 147.798 140.937C151.031 139.749 153.886 137.967 156.364 135.592C158.734 133.216 160.62 130.3 162.021 126.845C163.421 123.389 164.122 119.394 164.122 114.858C164.122 110.755 163.421 107.03 162.021 103.682C160.62 100.335 158.627 97.4729 156.041 95.0972C153.455 92.7215 150.33 90.886 146.667 89.5901C143.004 88.2944 138.91 87.6461 134.385 87.6461C131.152 87.6461 128.081 88.1323 125.172 89.1041C122.263 90.076 119.624 91.3179 117.253 92.8297C114.883 94.4494 112.836 96.2309 111.112 98.1746L86.3295 91.5338C86.1621 91.8807 108.61 101.793 108.369 101.999C105.798 105.166 104.381 105.625 99.9847 108.289C95.5312 110.987 90.5598 113.235 85.0705 115.033C79.5735 116.723 73.9768 117.771 68.2808 118.176C59.2531 118.818 50.8209 117.957 42.9843 115.592C35.2553 113.218 28.4133 109.645 22.4586 104.873C16.6037 99.9848 11.9161 94.0394 8.39579 87.0367C4.87546 80.034 2.8102 72.224 2.1999 63.607C1.58962 54.9899 2.53361 46.9659 5.03171 39.535C7.63731 32.0965 11.5512 25.5932 16.7736 20.0254C21.9884 14.3498 28.308 9.78634 35.7326 6.33522C43.2646 2.87649 51.6519 0.818569 60.8945 0.16103ZM92.0938 74.4471L92.0949 74.4459L92.0874 74.4388L92.0938 74.4471Z" stroke="#9C9C9C" stroke-width="2" mask="url(#path-1-inside-1_1785_2317)"/>
<path fill-rule="evenodd" clip-rule="evenodd" d="M58.8744 0.16103C64.1405 -0.213605 69.3451 0.0653948 74.4878 0.998597C79.7304 1.81645 84.7003 3.35742 89.3973 5.62143C94.194 7.77007 98.6103 10.6496 102.646 14.2597L83.5786 40.1361C81.9443 38.412 79.9988 36.8727 77.7426 35.5176C75.5938 34.1549 73.0919 33.1419 70.2367 32.479C67.4812 31.7007 64.3299 31.4377 60.7833 31.69C57.1293 31.95 53.6821 32.8448 50.4421 34.3744C47.3018 35.7886 44.5797 37.7685 42.2757 40.314C40.0791 42.852 38.4043 45.8941 37.2513 49.4403C36.0983 52.9865 35.6821 57.0215 36.0025 61.5455C36.2924 65.6386 37.2539 69.3052 38.8876 72.545C40.5212 75.7846 42.7116 78.4976 45.4587 80.6838C48.2058 82.87 51.4526 84.4792 55.1982 85.5119C58.9437 86.5444 63.0734 86.9003 67.5872 86.5792C70.8114 86.3498 73.8402 85.6473 76.6733 84.4714C79.5063 83.2956 82.0518 81.8696 84.3093 80.1934C86.5592 78.4095 88.4752 76.4869 90.0574 74.4258L92.5885 71.7818C92.7202 71.6417 92.8534 71.502 92.989 71.3634L93.0249 71.3262L93.0253 71.3266C95.7528 68.5479 99.2768 66.0508 103.597 63.8355C108.23 61.4599 113.348 59.5701 118.95 58.1663C124.553 56.8705 130.21 56.2227 135.92 56.2227C144.97 56.2227 153.32 57.6804 160.97 60.596C168.512 63.5116 175.084 67.561 180.687 72.7443C186.182 78.0355 190.438 84.2988 193.455 91.5338C196.471 98.7688 197.98 106.706 197.98 115.344C197.98 123.983 196.471 131.92 193.455 139.155C190.33 146.39 185.967 152.599 180.364 157.782C174.761 163.074 168.135 167.177 160.485 170.093C152.728 173.008 144.216 174.466 134.95 174.466C129.671 174.466 124.499 173.818 119.435 172.522C114.264 171.335 109.415 169.445 104.89 166.853C100.257 164.37 96.0549 161.184 92.2839 157.296L113.132 132.838C114.64 134.674 116.472 136.347 118.627 137.859C120.674 139.371 123.099 140.559 125.9 141.423C128.593 142.395 131.718 142.88 135.273 142.88C138.936 142.88 142.438 142.233 145.778 140.937C149.01 139.749 151.866 137.967 154.344 135.592C156.714 133.216 158.6 130.3 160 126.845C161.401 123.389 162.101 119.394 162.101 114.858C162.101 110.755 161.401 107.03 160 103.682C158.6 100.335 156.607 97.4729 154.021 95.0972C151.435 92.7215 148.31 90.886 144.647 89.5901C140.984 88.2944 136.89 87.6461 132.364 87.6461C129.132 87.6461 126.061 88.1323 123.152 89.1041C120.243 90.076 117.603 91.3179 115.233 92.8297C112.863 94.4494 110.816 96.2309 109.092 98.1746L84.3093 91.5338C84.1419 91.8807 106.589 101.793 106.349 101.999C103.778 105.166 102.36 105.625 97.9645 108.289C93.5111 110.987 88.5396 113.235 83.0503 115.033C77.5533 116.723 71.9567 117.771 66.2607 118.176C57.233 118.818 48.8007 117.957 40.9642 115.592C33.2351 113.218 26.3931 109.645 20.4384 104.873C14.5835 99.9848 9.89595 94.0394 6.37561 87.0367C2.85528 80.034 0.790017 72.224 0.17972 63.607C-0.430561 54.9899 0.513431 46.9659 3.01153 39.535C5.61712 32.0965 9.53105 25.5932 14.7535 20.0254C19.9682 14.3498 26.2878 9.78634 33.7124 6.33522C41.2444 2.87649 49.6318 0.818569 58.8744 0.16103ZM90.0736 74.4471L90.0748 74.4459L90.0673 74.4388L90.0736 74.4471Z" stroke="#9C9C9C" stroke-width="2" mask="url(#path-1-inside-1_1785_2317)"/>
<path d="M78.7872 128.772C78.7872 122.286 84.0331 117.029 90.5042 117.029H109.494V211.785H78.7872V128.772Z" stroke="#9C9C9C" stroke-width="2" mask="url(#path-1-inside-1_1785_2317)"/>
</svg>
