<?xml version="1.0" encoding="UTF-8"?>
<svg id="Layer_2" data-name="Layer 2" xmlns="http://www.w3.org/2000/svg" viewBox="0 0 139.81 112.73">
  <defs>
    <style>
      .cls-1 {
        fill: #434444;
      }

      .cls-2 {
        fill: #feffff;
      }
    </style>
  </defs>
  <g id="Layer_1-2" data-name="Layer 1">
    <g>
      <path class="cls-2" d="M130.22,12.47H50.51l-7.15-8.67c-1.98-2.43-5.32-3.8-8.37-3.8H9.43C4.26,0,0,4.26,0,9.43v93.86c0,5.17,4.26,9.43,9.43,9.43h120.94c5.17,0,9.43-4.26,9.43-9.43V21.91c-.15-5.17-4.41-9.43-9.58-9.43Z"/>
      <g>
        <path class="cls-1" d="M26.3,64.62h-6.36v-16.52h6.29c1.7,0,3.17.33,4.41.99,1.24.66,2.2,1.6,2.87,2.84.67,1.23,1.01,2.71,1.01,4.43s-.33,3.2-1.01,4.43-1.62,2.18-2.86,2.84-2.69.99-4.36.99ZM24.43,60.82h1.71c.82,0,1.52-.13,2.09-.4.58-.26,1.02-.72,1.32-1.36.31-.65.46-1.54.46-2.69s-.16-2.05-.46-2.69c-.31-.65-.76-1.1-1.35-1.36-.6-.26-1.32-.39-2.18-.39h-1.58v8.91Z"/>
        <path class="cls-1" d="M36.59,64.62v-16.52h11.91v3.61h-7.42v2.84h6.81v3.61h-6.81v2.84h7.39v3.61h-11.87Z"/>
        <path class="cls-1" d="M59.63,53.27c-.04-.54-.24-.96-.6-1.26-.36-.3-.9-.45-1.62-.45-.46,0-.84.06-1.13.17s-.51.26-.65.45c-.14.19-.21.4-.22.65-.01.2.03.38.11.54.08.16.22.3.4.43.18.13.42.24.7.34.29.1.62.19,1.02.27l1.35.29c.92.19,1.7.45,2.35.77s1.18.69,1.6,1.12c.41.43.72.91.92,1.44.2.53.3,1.11.3,1.74,0,1.09-.28,2.01-.82,2.76-.54.75-1.31,1.33-2.3,1.72-1,.39-2.2.59-3.59.59s-2.69-.21-3.76-.64c-1.07-.43-1.89-1.08-2.48-1.96-.59-.88-.89-2.02-.89-3.4h4.26c.03.51.15.93.38,1.27.23.34.55.61.96.78.41.18.9.27,1.47.27.48,0,.88-.06,1.2-.18.32-.12.57-.28.73-.49.17-.21.25-.45.26-.72,0-.25-.09-.48-.25-.67-.16-.19-.42-.36-.78-.52s-.85-.3-1.46-.43l-1.65-.35c-1.46-.32-2.61-.85-3.45-1.59-.84-.74-1.26-1.76-1.26-3.05,0-1.05.28-1.97.84-2.75s1.35-1.4,2.36-1.84c1.01-.44,2.16-.66,3.47-.66s2.49.22,3.46.67c.97.45,1.72,1.07,2.26,1.88.53.81.8,1.76.8,2.84h-4.29Z"/>
        <path class="cls-1" d="M70.34,48.11v16.52h-4.48v-16.52h4.48Z"/>
        <path class="cls-1" d="M83.2,53.56c-.07-.28-.18-.54-.33-.75-.15-.22-.34-.4-.56-.56-.22-.15-.48-.27-.77-.35-.29-.08-.62-.12-.96-.12-.75,0-1.39.18-1.92.54-.53.36-.93.88-1.21,1.56s-.42,1.5-.42,2.45.13,1.8.4,2.48c.26.69.66,1.22,1.18,1.58s1.17.55,1.94.55c.68,0,1.25-.1,1.71-.3.45-.2.79-.48,1.02-.85.23-.37.34-.8.34-1.29l.77.08h-3.77v-3.19h7.32v2.29c0,1.51-.32,2.79-.96,3.86-.64,1.07-1.51,1.88-2.63,2.45s-2.39.85-3.84.85c-1.61,0-3.02-.34-4.23-1.02-1.21-.68-2.16-1.66-2.84-2.92s-1.02-2.77-1.02-4.51c0-1.37.21-2.58.62-3.63.42-1.05,1-1.95,1.74-2.67.74-.73,1.6-1.28,2.57-1.65.97-.37,2.02-.56,3.13-.56.98,0,1.89.14,2.73.42.84.28,1.59.67,2.23,1.18.65.51,1.17,1.11,1.57,1.8.4.69.64,1.45.73,2.28h-4.53Z"/>
        <path class="cls-1" d="M104.31,48.11v16.52h-3.74l-5.97-8.68h-.1v8.68h-4.48v-16.52h3.81l5.87,8.65h.13v-8.65h4.48Z"/>
        <path class="cls-1" d="M115.35,53.27c-.04-.54-.24-.96-.6-1.26-.36-.3-.9-.45-1.62-.45-.46,0-.84.06-1.13.17s-.51.26-.65.45c-.14.19-.21.4-.22.65-.01.2.03.38.11.54.08.16.22.3.4.43.18.13.42.24.7.34.29.1.62.19,1.02.27l1.35.29c.92.19,1.7.45,2.35.77s1.18.69,1.6,1.12c.41.43.72.91.92,1.44.2.53.3,1.11.3,1.74,0,1.09-.28,2.01-.82,2.76-.54.75-1.31,1.33-2.3,1.72-1,.39-2.2.59-3.59.59s-2.69-.21-3.76-.64c-1.07-.43-1.89-1.08-2.48-1.96-.59-.88-.89-2.02-.89-3.4h4.26c.03.51.15.93.38,1.27.23.34.55.61.96.78.41.18.9.27,1.47.27.48,0,.88-.06,1.2-.18.32-.12.57-.28.73-.49.17-.21.25-.45.26-.72,0-.25-.09-.48-.25-.67-.16-.19-.42-.36-.78-.52s-.85-.3-1.46-.43l-1.65-.35c-1.46-.32-2.61-.85-3.45-1.59-.84-.74-1.26-1.76-1.26-3.05,0-1.05.28-1.97.84-2.75s1.35-1.4,2.36-1.84c1.01-.44,2.16-.66,3.47-.66s2.49.22,3.46.67c.97.45,1.72,1.07,2.26,1.88.53.81.8,1.76.8,2.84h-4.29Z"/>
      </g>
    </g>
  </g>
</svg>