<svg width="175" height="175" viewBox="0 0 175 175" fill="none" xmlns="http://www.w3.org/2000/svg">
<path d="M87.5 0C39.1755 0 0 39.1755 0 87.5C0 128.534 28.252 162.967 66.3635 172.424V114.24H48.321V87.5H66.3635V75.978C66.3635 46.1965 79.842 32.3925 109.081 32.3925C114.625 32.3925 124.19 33.481 128.104 34.566V58.8035C126.038 58.5865 122.451 58.478 117.995 58.478C103.649 58.478 98.105 63.9135 98.105 78.043V87.5H126.686L121.775 114.24H98.105V174.359C141.431 169.127 175.003 132.237 175.003 87.5C175 39.1755 135.824 0 87.5 0Z" fill="white"/>
</svg>
