<svg width="175" height="175" viewBox="0 0 175 175" fill="none" xmlns="http://www.w3.org/2000/svg">
<path fill-rule="evenodd" clip-rule="evenodd" d="M87.5724 0C39.1471 0 0 39.4357 0 88.2231C0 127.221 25.0829 160.233 59.8796 171.916C64.23 172.795 65.8236 170.018 65.8236 167.682C65.8236 165.637 65.6802 158.627 65.6802 151.322C41.3197 156.581 36.2468 140.805 36.2468 140.805C32.3319 130.581 26.5313 127.953 26.5313 127.953C18.5581 122.548 27.1121 122.548 27.1121 122.548C35.9564 123.133 40.5973 131.604 40.5973 131.604C48.4253 145.041 61.0393 141.244 66.114 138.907C66.8382 133.21 69.1595 129.267 71.6242 127.076C52.195 125.031 31.7529 117.436 31.7529 83.5482C31.7529 73.9079 35.2304 66.0208 40.7407 59.8867C39.8713 57.6963 36.8258 48.6386 41.6119 36.5157C41.6119 36.5157 49.0061 34.1782 65.6784 45.5716C72.8164 43.6404 80.1778 42.658 87.5724 42.6497C94.9666 42.6497 102.504 43.6733 109.465 45.5716C126.139 34.1782 133.533 36.5157 133.533 36.5157C138.319 48.6386 135.272 57.6963 134.402 59.8867C140.058 66.0208 143.392 73.9079 143.392 83.5482C143.392 117.436 122.95 124.884 103.375 127.076C106.566 129.851 109.319 135.109 109.319 143.435C109.319 155.266 109.176 164.761 109.176 167.681C109.176 170.018 110.771 172.795 115.12 171.918C149.917 160.231 175 127.221 175 88.2231C175.143 39.4357 135.852 0 87.5724 0Z" fill="white"/>
</svg>
