<svg width="237" height="204" viewBox="0 0 237 204" fill="none" xmlns="http://www.w3.org/2000/svg">
<path d="M35.8558 77.1772C37.6002 76.685 38.7948 77.5818 39.4398 79.8676L41.0437 85.5519C43.267 93.4317 52.3818 116.414 68.3879 154.498L68.7952 155.942C69.5929 158.769 69.0594 160.446 67.1947 160.972C65.4426 161.207 64.3629 160.602 63.9555 159.158L63.3954 157.173C62.3941 153.625 57.3045 141.456 48.1268 120.667C39.9616 123.49 35.9979 125.323 36.2355 126.165L36.608 126.45L36.6589 126.63C40.9542 138.861 44.5529 150.119 47.4552 160.405L49.4919 167.623C50.2726 170.39 49.6103 172.07 47.505 172.665C46.1215 173.055 45.0726 172.214 44.3583 170.143L42.4489 163.376C39.0544 151.346 35.3793 139.817 31.4235 128.789L30.8822 128.942C29.3784 129.366 28.0488 129.027 26.8934 127.924L26.4861 126.481C27.1013 124.748 28.0321 123.674 29.2783 123.257C27.9884 118.686 23.0091 106.908 14.3405 87.9237C13.9162 86.4199 14.813 85.2252 17.0309 84.3397C18.5347 83.9154 20.908 87.9539 24.151 96.4552C26.0192 100.084 29.3415 107.946 34.118 120.041L34.4789 119.939L46.3286 115.329C40.0418 100.414 35.948 89.5873 34.0471 82.8503C33.1476 79.6623 33.7505 77.7713 35.8558 77.1772Z" fill="#C38F2E"/>
<path d="M54.7847 69.6932C56.2885 69.2689 57.4832 70.1657 58.3687 72.3836L58.0981 72.4599L58.6233 73.2858C60.6685 72.7088 66.1746 70.4733 75.1416 66.5794C76.7982 66.6965 77.8131 67.4167 78.1865 68.74C78.7296 70.6648 75.0173 73.0436 67.0497 75.8762L59.4152 79.1993L60.5353 83.1693C61.333 85.9964 65.7091 97.1327 73.6637 116.578L85.2127 113.32C86.7767 112.878 87.9852 113.479 88.8383 115.122C89.3644 116.986 88.2139 118.317 85.3868 119.115L75.1912 121.992L75.293 122.353L80.2922 141.106C81.5482 145.557 82.9158 148.678 84.3951 150.469L101.929 144.255C103.922 143.953 105.122 144.523 105.529 145.967C106.072 147.892 104.239 149.448 100.028 150.636C89.3705 154.293 84.1181 156.392 84.2709 156.933C82.1054 157.544 79.6681 154.66 76.9591 148.281L74.5731 141.551L68.9745 121.019L55.1217 84.6968L54.3325 81.8997C52.2279 74.4409 52.2885 70.3976 54.5141 69.7696L54.7847 69.6932Z" fill="#C38F2E"/>
<path d="M89.904 61.2451C91.7687 60.719 93.4988 63.283 95.0942 68.9372C109.87 115.551 117.95 138.663 119.334 138.273L121.682 136.928L131.954 134.322L135.153 132.543C136.056 132.288 137.174 132.914 138.508 134.421C138.586 136.997 136.459 138.896 132.128 140.118L122.603 142.61C121.881 142.814 120.736 143.819 119.168 145.625L117.814 146.007C115.95 146.533 112.739 139.874 108.183 126.028C104.933 117.269 98.0553 96.5781 87.5514 63.9546C87.6762 62.5556 88.4604 61.6525 89.904 61.2451Z" fill="#C38F2E"/>
<path d="M122.837 51.9528C124.702 51.4266 126.432 53.9907 128.027 59.6449C142.803 106.259 150.883 129.371 152.266 128.98L154.615 127.636L164.887 125.03L168.086 123.25C168.988 122.996 170.107 123.622 171.441 125.129C171.518 127.705 169.392 129.603 165.061 130.825L155.536 133.318C154.814 133.522 153.669 134.527 152.101 136.333L150.747 136.715C148.883 137.241 145.672 130.581 141.116 116.736C137.865 107.977 130.988 87.2857 120.484 54.6622C120.609 53.2633 121.393 52.3601 122.837 51.9528Z" fill="#C38F2E"/>
<path d="M167.058 48.1448C175.119 45.8705 184.797 55.3159 196.094 76.4809C198.08 80.986 199.889 85.6709 201.521 90.5354C205.645 105.152 204.549 116.112 198.232 123.414C195.487 125.422 193.272 126.664 191.588 127.14C185.212 128.939 179.529 125.022 174.538 115.391C172.412 111.769 170.62 107.372 169.16 102.199L168.753 100.755C164.798 86.7402 162.986 71.1137 163.318 53.8759L163.063 52.9736L162.626 52.8048C162.694 50.5128 164.171 48.9595 167.058 48.1448ZM168.921 53.3664C168.073 68.542 169.821 83.8292 174.166 99.2279L174.395 100.04C178.146 113.333 182.557 120.564 187.627 121.731L190.06 121.726L190.963 121.471C196.256 119.978 198.675 114.165 198.219 104.033C198.141 101.457 197.653 98.5755 196.753 95.3874L195.277 90.1543C191.169 75.5976 183.722 63.7043 172.935 54.4742C171.101 53.498 169.763 53.1287 168.921 53.3664Z" fill="#C38F2E"/>
<path d="M197.876 35.845C200.343 35.1491 203.417 41.3276 207.1 54.3805L215.523 89.4096L218.622 98.6659C218.995 99.9892 218.193 101.06 216.216 101.877C214.291 102.421 212.259 98.9025 210.121 91.3234L202.49 58.4089L201.293 54.1682C199.85 49.0554 197.896 44.0868 195.431 39.2624C195.058 37.9391 195.873 36.8 197.876 35.845ZM219.574 110.671C220.717 110.349 221.675 111.214 222.45 113.269C222.67 114.051 222.131 115.015 220.83 116.161C218.83 116.206 217.635 115.537 217.244 114.153C216.803 112.589 217.579 111.428 219.574 110.671Z" fill="#C38F2E"/>
<path d="M234.472 22.87C233.716 23.3887 232.433 23.3598 230.622 22.7831L230.41 22.4739L227.518 16.2719L226.457 14.7259L218.528 5.1591C217.946 3.13284 218.479 1.55388 220.128 0.422199C222.67 -1.32247 227.054 2.34003 233.278 11.4097C237.097 16.9752 237.495 20.7953 234.472 22.87ZM226.203 26.7258C224.022 27.8184 222.365 27.5402 221.233 25.8912C219.787 21.4264 218.261 18.026 216.658 15.6898L212.123 11.0701C211.558 10.2456 212.035 8.80606 213.556 6.75152C216.682 5.41507 219.919 7.18604 223.267 12.0644C227.629 20.1883 228.848 24.9104 226.924 26.2307L226.203 26.7258Z" fill="#C38F2E"/>
<path d="M1.77588 181.27C2.49797 180.706 3.78054 180.655 5.62359 181.118L5.85459 181.413L9.12655 187.423L10.2816 188.9L18.7911 197.955C19.498 199.941 19.0637 201.55 17.4882 202.783C15.0594 204.682 10.4569 201.299 3.6806 192.634C-0.477548 187.317 -1.11245 183.529 1.77588 181.27ZM9.78947 176.908C11.8985 175.681 13.569 175.856 14.8011 177.432C16.5229 181.798 18.2565 185.097 20.0019 187.329L24.8152 191.657C25.4312 192.445 25.0441 193.912 23.6537 196.057C20.6173 197.585 17.2767 196.019 13.6319 191.358C8.77273 183.521 7.26218 178.884 9.10021 177.447L9.78947 176.908Z" fill="#C38F2E"/>
</svg>
