<svg width="175" height="175" viewBox="0 0 175 175" fill="none" xmlns="http://www.w3.org/2000/svg">
<g clip-path="url(#clip0_1787_3223)">
<path d="M87.5 15.7568C110.879 15.7568 113.647 15.8594 122.842 16.2695C131.387 16.6455 136.001 18.0811 139.077 19.2773C143.145 20.8496 146.084 22.7637 149.126 25.8057C152.202 28.8818 154.082 31.7871 155.654 35.8545C156.851 38.9307 158.286 43.5791 158.662 52.0898C159.072 61.3184 159.175 64.0869 159.175 87.4316C159.175 110.811 159.072 113.579 158.662 122.773C158.286 131.318 156.851 135.933 155.654 139.009C154.082 143.076 152.168 146.016 149.126 149.058C146.05 152.134 143.145 154.014 139.077 155.586C136.001 156.782 131.353 158.218 122.842 158.594C113.613 159.004 110.845 159.106 87.5 159.106C64.1211 159.106 61.3525 159.004 52.1582 158.594C43.6133 158.218 38.999 156.782 35.9229 155.586C31.8555 154.014 28.916 152.1 25.874 149.058C22.7979 145.981 20.918 143.076 19.3457 139.009C18.1494 135.933 16.7139 131.284 16.3379 122.773C15.9277 113.545 15.8252 110.776 15.8252 87.4316C15.8252 64.0527 15.9277 61.2842 16.3379 52.0898C16.7139 43.5449 18.1494 38.9307 19.3457 35.8545C20.918 31.7871 22.832 28.8477 25.874 25.8057C28.9502 22.7295 31.8555 20.8496 35.9229 19.2773C38.999 18.0811 43.6475 16.6455 52.1582 16.2695C61.3525 15.8594 64.1211 15.7568 87.5 15.7568ZM87.5 0C63.7451 0 60.7715 0.102539 51.4404 0.512695C42.1436 0.922852 35.752 2.42676 30.2148 4.58008C24.4385 6.83594 19.5508 9.80957 14.6973 14.6973C9.80957 19.5508 6.83594 24.4385 4.58008 30.1807C2.42676 35.752 0.922852 42.1094 0.512695 51.4062C0.102539 60.7715 0 63.7451 0 87.5C0 111.255 0.102539 114.229 0.512695 123.56C0.922852 132.856 2.42676 139.248 4.58008 144.785C6.83594 150.562 9.80957 155.449 14.6973 160.303C19.5508 165.156 24.4385 168.164 30.1807 170.386C35.752 172.539 42.1094 174.043 51.4063 174.453C60.7373 174.863 63.7109 174.966 87.4658 174.966C111.221 174.966 114.194 174.863 123.525 174.453C132.822 174.043 139.214 172.539 144.751 170.386C150.493 168.164 155.381 165.156 160.234 160.303C165.088 155.449 168.096 150.562 170.317 144.819C172.471 139.248 173.975 132.891 174.385 123.594C174.795 114.263 174.897 111.289 174.897 87.5342C174.897 63.7793 174.795 60.8057 174.385 51.4746C173.975 42.1777 172.471 35.7861 170.317 30.249C168.164 24.4385 165.19 19.5508 160.303 14.6973C155.449 9.84375 150.562 6.83594 144.819 4.61426C139.248 2.46094 132.891 0.957031 123.594 0.546875C114.229 0.102539 111.255 0 87.5 0Z" fill="white"/>
<path d="M87.5 42.5547C62.6855 42.5547 42.5537 62.6865 42.5537 87.501C42.5537 112.315 62.6855 132.447 87.5 132.447C112.314 132.447 132.446 112.315 132.446 87.501C132.446 62.6865 112.314 42.5547 87.5 42.5547ZM87.5 116.656C71.4014 116.656 58.3447 103.6 58.3447 87.501C58.3447 71.4023 71.4014 58.3457 87.5 58.3457C103.599 58.3457 116.655 71.4023 116.655 87.501C116.655 103.6 103.599 116.656 87.5 116.656Z" fill="white"/>
<path d="M144.717 40.7764C144.717 46.5869 140 51.2696 134.224 51.2696C128.413 51.2696 123.73 46.5528 123.73 40.7764C123.73 34.9658 128.447 30.2832 134.224 30.2832C140 30.2832 144.717 35 144.717 40.7764Z" fill="white"/>
</g>
<defs>
<clipPath id="clip0_1787_3223">
<rect width="175" height="175" fill="white"/>
</clipPath>
</defs>
</svg>
