<svg width="175" height="175" viewBox="0 0 175 175" fill="none" xmlns="http://www.w3.org/2000/svg">
<path opacity="0.89" d="M162.046 0H12.9199C5.77637 0 0 5.63965 0 12.6123V162.354C0 169.326 5.77637 175 12.9199 175H162.046C169.189 175 175 169.326 175 162.388V12.6123C175 5.63965 169.189 0 162.046 0ZM51.9189 149.126H25.9424V65.5908H51.9189V149.126ZM38.9307 54.209C30.5908 54.209 23.8574 47.4756 23.8574 39.1699C23.8574 30.8643 30.5908 24.1309 38.9307 24.1309C47.2363 24.1309 53.9697 30.8643 53.9697 39.1699C53.9697 47.4414 47.2363 54.209 38.9307 54.209ZM149.126 149.126H123.184V108.521C123.184 98.8477 123.013 86.3721 109.683 86.3721C96.1816 86.3721 94.1309 96.9336 94.1309 107.837V149.126H68.2227V65.5908H93.1055V77.0068H93.4473C96.8994 70.4443 105.376 63.5059 117.988 63.5059C144.272 63.5059 149.126 80.8008 149.126 103.291V149.126Z" fill="white"/>
</svg>
