<svg width="80" height="80" viewBox="0 0 80 80" fill="none" xmlns="http://www.w3.org/2000/svg">
<g clip-path="url(#clip0_1350_2057)">
<mask id="mask0_1350_2057" style="mask-type:alpha" maskUnits="userSpaceOnUse" x="0" y="0" width="80" height="80">
<path fill-rule="evenodd" clip-rule="evenodd" d="M56.7295 79.4544C57.9895 79.9453 59.4262 79.9139 60.698 79.3019L77.1686 71.3765C78.8994 70.5437 80 68.7921 80 66.8705V13.1314C80 11.2098 78.8994 9.45817 77.1687 8.62537L60.698 0.699737C59.029 -0.103371 57.0757 0.0933399 55.6108 1.15829C55.4016 1.31042 55.2022 1.48028 55.0152 1.66746L23.4841 30.4339L9.74976 20.0084C8.4712 19.0379 6.6829 19.1175 5.49546 20.1976L1.09042 24.2047C-0.362041 25.5259 -0.363706 27.8109 1.08682 29.1343L12.9977 40.0008L1.08682 50.8673C-0.363706 52.1907 -0.362041 54.4758 1.09042 55.797L5.49546 59.804C6.6829 60.8842 8.4712 60.9637 9.74976 59.9931L23.4841 49.5677L55.0152 78.3341C55.514 78.8332 56.0997 79.2091 56.7295 79.4544ZM60.0122 21.8399L36.0873 40.0008L60.0122 58.1617V21.8399Z" fill="white"/>
</mask>
<g mask="url(#mask0_1350_2057)">
<path d="M77.1689 8.63703L60.6853 0.700507C58.7773 -0.218145 56.4972 0.169362 54.9998 1.66674L1.03866 50.8666C-0.412758 52.1899 -0.411089 54.475 1.04226 55.7962L5.44997 59.8033C6.63814 60.8834 8.42756 60.963 9.70684 59.9925L74.6885 10.696C76.8686 9.04215 79.9998 10.597 79.9998 13.3334V13.1421C79.9998 11.2213 78.8995 9.47031 77.1689 8.63703Z" fill="#0065A9"/>
<g filter="url(#filter0_d_1350_2057)">
<path d="M77.1689 71.3632L60.6853 79.2998C58.7773 80.2186 56.4972 79.8309 54.9998 78.3335L1.03866 29.1337C-0.412758 27.8103 -0.411089 25.5252 1.04226 24.204L5.44997 20.197C6.63814 19.1168 8.42756 19.0373 9.70684 20.0078L74.6885 69.3042C76.8686 70.9581 79.9998 69.4032 79.9998 66.6669V66.8582C79.9998 68.779 78.8995 70.5299 77.1689 71.3632Z" fill="#007ACC"/>
</g>
<g filter="url(#filter1_d_1350_2057)">
<path d="M60.6862 79.3019C58.7777 80.22 56.4975 79.8316 55 78.3341C56.8451 80.1792 60 78.8724 60 76.2631V3.73853C60 1.12914 56.8451 -0.177654 55 1.66746C56.4975 0.169952 58.7777 -0.218102 60.6862 0.699737L77.167 8.62539C78.8987 9.45819 80 11.2098 80 13.1314V66.8705C80 68.7921 78.8987 70.5437 77.1669 71.3765L60.6862 79.3019Z" fill="#1F9CF0"/>
</g>
<g style="mix-blend-mode:overlay" opacity="0.25">
<path fill-rule="evenodd" clip-rule="evenodd" d="M56.6807 79.4545C57.9407 79.9453 59.3775 79.9138 60.6492 79.3019L77.1198 71.3765C78.8505 70.5437 79.9512 68.7921 79.9512 66.8705V13.1314C79.9512 11.2097 78.8506 9.45814 77.1199 8.62534L60.6492 0.699737C58.9802 -0.103371 57.0268 0.0933404 55.562 1.15829C55.3528 1.31042 55.1534 1.48028 54.9664 1.66746L23.4352 30.4339L9.70092 20.0085C8.42244 19.0379 6.63408 19.1175 5.44664 20.1976L1.0416 24.2046C-0.41087 25.5259 -0.412535 27.8109 1.038 29.1343L12.9488 40.0008L1.038 50.8673C-0.412535 52.1907 -0.41087 54.4757 1.0416 55.7969L5.44664 59.804C6.63408 60.8841 8.42244 60.9637 9.70092 59.9932L23.4352 49.5677L54.9664 78.3341C55.4652 78.8332 56.0508 79.2091 56.6807 79.4545ZM59.9633 21.8399L36.0384 40.0008L59.9633 58.1617V21.8399Z" fill="url(#paint0_linear_1350_2057)"/>
</g>
</g>
</g>
<defs>
<filter id="filter0_d_1350_2057" x="-8.38217" y="10.9967" width="96.7155" height="77.1296" filterUnits="userSpaceOnUse" color-interpolation-filters="sRGB">
<feFlood flood-opacity="0" result="BackgroundImageFix"/>
<feColorMatrix in="SourceAlpha" type="matrix" values="0 0 0 0 0 0 0 0 0 0 0 0 0 0 0 0 0 0 127 0" result="hardAlpha"/>
<feOffset/>
<feGaussianBlur stdDeviation="4.16667"/>
<feColorMatrix type="matrix" values="0 0 0 0 0 0 0 0 0 0 0 0 0 0 0 0 0 0 0.25 0"/>
<feBlend mode="overlay" in2="BackgroundImageFix" result="effect1_dropShadow_1350_2057"/>
<feBlend mode="normal" in="SourceGraphic" in2="effect1_dropShadow_1350_2057" result="shape"/>
</filter>
<filter id="filter1_d_1350_2057" x="46.6667" y="-8.12631" width="41.6667" height="96.2546" filterUnits="userSpaceOnUse" color-interpolation-filters="sRGB">
<feFlood flood-opacity="0" result="BackgroundImageFix"/>
<feColorMatrix in="SourceAlpha" type="matrix" values="0 0 0 0 0 0 0 0 0 0 0 0 0 0 0 0 0 0 127 0" result="hardAlpha"/>
<feOffset/>
<feGaussianBlur stdDeviation="4.16667"/>
<feColorMatrix type="matrix" values="0 0 0 0 0 0 0 0 0 0 0 0 0 0 0 0 0 0 0.25 0"/>
<feBlend mode="overlay" in2="BackgroundImageFix" result="effect1_dropShadow_1350_2057"/>
<feBlend mode="normal" in="SourceGraphic" in2="effect1_dropShadow_1350_2057" result="shape"/>
</filter>
<linearGradient id="paint0_linear_1350_2057" x1="39.9512" y1="0.207031" x2="39.9512" y2="79.7946" gradientUnits="userSpaceOnUse">
<stop stop-color="white"/>
<stop offset="1" stop-color="white" stop-opacity="0"/>
</linearGradient>
<clipPath id="clip0_1350_2057">
<rect width="80" height="80" fill="white"/>
</clipPath>
</defs>
</svg>
