<?xml version="1.0" encoding="UTF-8"?>
<svg id="Layer_2" data-name="Layer 2" xmlns="http://www.w3.org/2000/svg" viewBox="0 0 139.81 112.73">
  <defs>
    <style>
      .cls-1 {
        fill: #434444;
      }

      .cls-2 {
        fill: #feffff;
      }
    </style>
  </defs>
  <g id="Layer_1-2" data-name="Layer 1">
    <path class="cls-2" d="M130.22,12.47H50.51l-7.15-8.67c-1.98-2.43-5.32-3.8-8.37-3.8H9.43C4.26,0,0,4.26,0,9.43v93.86c0,5.17,4.26,9.43,9.43,9.43h120.94c5.17,0,9.43-4.26,9.43-9.43V21.91c-.15-5.17-4.41-9.43-9.58-9.43Z"/>
    <g>
      <path class="cls-1" d="M21.48,64.62l-4.87-16.52h5l2.26,10.16h.13l2.68-10.16h3.94l2.68,10.2h.13l2.26-10.2h5l-4.87,16.52h-4.29l-2.81-9.23h-.13l-2.81,9.23h-4.29Z"/>
      <path class="cls-1" d="M42.13,64.62v-16.52h11.91v3.61h-7.42v2.84h6.81v3.61h-6.81v2.84h7.39v3.61h-11.87Z"/>
      <path class="cls-1" d="M56.26,64.62v-16.52h7.16c1.26,0,2.32.17,3.17.51.86.34,1.5.82,1.94,1.44.44.62.66,1.35.66,2.19,0,.61-.13,1.16-.4,1.66s-.64.92-1.12,1.25-1.04.57-1.68.7v.16c.71.03,1.35.21,1.94.54.58.33,1.04.78,1.39,1.36.34.58.52,1.26.52,2.04,0,.9-.23,1.71-.7,2.41-.47.7-1.14,1.26-2.01,1.66-.87.4-1.9.61-3.1.61h-7.78ZM60.74,54.78h1.84c.39,0,.74-.06,1.04-.19s.54-.3.71-.54c.17-.23.25-.52.25-.86,0-.51-.18-.9-.55-1.17-.37-.27-.83-.41-1.39-.41h-1.9v3.16ZM60.74,61.04h2.1c.75,0,1.32-.14,1.69-.42.38-.28.57-.7.57-1.25,0-.39-.09-.72-.27-.98s-.43-.47-.75-.61c-.33-.14-.72-.21-1.17-.21h-2.16v3.48Z"/>
      <path class="cls-1" d="M82.3,64.62h-6.36v-16.52h6.29c1.7,0,3.17.33,4.41.99,1.24.66,2.2,1.6,2.87,2.84.67,1.23,1.01,2.71,1.01,4.43s-.33,3.2-1.01,4.43-1.62,2.18-2.86,2.84-2.69.99-4.36.99ZM80.42,60.82h1.71c.82,0,1.52-.13,2.09-.4.58-.26,1.02-.72,1.32-1.36.31-.65.46-1.54.46-2.69s-.16-2.05-.46-2.69c-.31-.65-.76-1.1-1.35-1.36-.6-.26-1.32-.39-2.18-.39h-1.58v8.91Z"/>
      <path class="cls-1" d="M92.59,64.62v-16.52h11.91v3.61h-7.42v2.84h6.81v3.61h-6.81v2.84h7.39v3.61h-11.87Z"/>
      <path class="cls-1" d="M111.24,48.1l3.39,11.65h.13l3.39-11.65h5.06l-5.45,16.52h-6.13l-5.45-16.52h5.07Z"/>
    </g>
  </g>
</svg>