<svg width="41" height="41" viewBox="0 0 41 41" fill="none" xmlns="http://www.w3.org/2000/svg">
<path d="M40.2492 22.5683C41.2503 21.4243 41.2503 19.5665 40.2492 18.4225L29.9987 6.70826C28.9977 5.56429 27.372 5.56429 26.371 6.70826C25.37 7.85223 25.37 9.71004 26.371 10.854L32.249 17.5714H15.3758C13.9583 17.5714 12.8131 18.8801 12.8131 20.5C12.8131 22.1199 13.9583 23.4286 15.3758 23.4286H32.249L26.371 30.146C25.37 31.29 25.37 33.1478 26.371 34.2917C27.372 35.4357 28.9977 35.4357 29.9987 34.2917L40.2492 22.5775V22.5683ZM12.8131 5.85714C14.2306 5.85714 15.3758 4.54844 15.3758 2.92857C15.3758 1.30871 14.2306 0 12.8131 0H7.68788C3.44353 0 0 3.93527 0 8.78572V32.2143C0 37.0647 3.44353 41 7.68788 41H12.8131C14.2306 41 15.3758 39.6913 15.3758 38.0714C15.3758 36.4516 14.2306 35.1429 12.8131 35.1429H7.68788C6.27042 35.1429 5.12525 33.8342 5.12525 32.2143V8.78572C5.12525 7.16585 6.27042 5.85714 7.68788 5.85714H12.8131Z" fill="#D10D0D"/>
</svg>
