<svg width="23" height="30" viewBox="0 0 23 30" fill="none" xmlns="http://www.w3.org/2000/svg">
<path d="M17.119 7.49977C17.119 10.8879 14.5305 13.4995 11.4999 13.4995C8.46927 13.4995 5.88086 10.8879 5.88086 7.49977C5.88086 4.11159 8.46927 1.5 11.4999 1.5C14.5305 1.5 17.119 4.11159 17.119 7.49977Z" stroke="#1E3930" stroke-width="3"/>
<path d="M21.5 23.0772C21.5 24.2574 20.6978 25.5798 18.8581 26.6873C17.0475 27.7772 14.4496 28.5 11.5 28.5C8.55036 28.5 5.95248 27.7772 4.14189 26.6873C2.30221 25.5798 1.5 24.2574 1.5 23.0772C1.5 21.8969 2.30221 20.5745 4.14189 19.4671C5.95248 18.3771 8.55036 17.6543 11.5 17.6543C14.4496 17.6543 17.0475 18.3771 18.8581 19.4671C20.6978 20.5745 21.5 21.8969 21.5 23.0772Z" stroke="#1E3930" stroke-width="3"/>
</svg>
