<svg width="28" height="28" viewBox="0 0 28 28" fill="none" xmlns="http://www.w3.org/2000/svg">
<path d="M25.033 27.1467C25.6664 27.6808 26.6127 27.6003 27.1467 26.967C27.6808 26.3337 27.6003 25.3873 26.967 24.8533L25.033 27.1467ZM21.9596 12.8574C21.9596 18.0421 17.8106 22.2148 12.7298 22.2148V25.2148C19.5008 25.2148 24.9596 19.6654 24.9596 12.8574H21.9596ZM12.7298 22.2148C7.64898 22.2148 3.5 18.0421 3.5 12.8574H0.5C0.5 19.6654 5.95879 25.2148 12.7298 25.2148V22.2148ZM3.5 12.8574C3.5 7.67268 7.64898 3.5 12.7298 3.5V0.5C5.95879 0.5 0.5 6.04936 0.5 12.8574H3.5ZM12.7298 3.5C17.8106 3.5 21.9596 7.67268 21.9596 12.8574H24.9596C24.9596 6.04936 19.5008 0.5 12.7298 0.5V3.5ZM18.2563 21.4323L25.033 27.1467L26.967 24.8533L20.1903 19.1389L18.2563 21.4323Z" fill="#1E3930"/>
</svg>
