<svg width="50" height="50" viewBox="0 0 50 50" fill="none" xmlns="http://www.w3.org/2000/svg">
<path d="M25.0007 31.2507C28.4524 31.2507 31.2507 28.4524 31.2507 25.0007C31.2507 21.5489 28.4524 18.7507 25.0007 18.7507C21.5489 18.7507 18.7507 21.5489 18.7507 25.0007C18.7507 28.4524 21.5489 31.2507 25.0007 31.2507Z" stroke="#1E1E1E" stroke-width="2" stroke-linecap="round" stroke-linejoin="round"/>
<path d="M40.4173 31.2507C40.14 31.879 40.0573 32.5761 40.1798 33.2519C40.3024 33.9277 40.6245 34.5513 41.1048 35.0423L41.2298 35.1673C41.6172 35.5543 41.9246 36.0138 42.1342 36.5197C42.3439 37.0255 42.4518 37.5677 42.4518 38.1152C42.4518 38.6628 42.3439 39.205 42.1342 39.7108C41.9246 40.2166 41.6172 40.6762 41.2298 41.0632C40.8429 41.4506 40.3833 41.7579 39.8775 41.9676C39.3717 42.1773 38.8295 42.2852 38.2819 42.2852C37.7343 42.2852 37.1921 42.1773 36.6863 41.9676C36.1805 41.7579 35.721 41.4506 35.334 41.0632L35.209 40.9382C34.718 40.4579 34.0944 40.1357 33.4185 40.0131C32.7427 39.8906 32.0457 39.9733 31.4173 40.2507C30.8011 40.5147 30.2756 40.9532 29.9055 41.5122C29.5353 42.0711 29.3367 42.7261 29.334 43.3965V43.7507C29.334 44.8557 28.895 45.9155 28.1136 46.6969C27.3322 47.4783 26.2724 47.9173 25.1673 47.9173C24.0623 47.9173 23.0024 47.4783 22.221 46.6969C21.4396 45.9155 21.0007 44.8557 21.0007 43.7507V43.5632C20.9845 42.8736 20.7613 42.2048 20.36 41.6438C19.9588 41.0828 19.398 40.6554 18.7507 40.4173C18.1223 40.14 17.4252 40.0573 16.7494 40.1798C16.0736 40.3024 15.45 40.6245 14.959 41.1048L14.834 41.2298C14.447 41.6172 13.9875 41.9246 13.4817 42.1342C12.9758 42.3439 12.4336 42.4518 11.8861 42.4518C11.3385 42.4518 10.7963 42.3439 10.2905 42.1342C9.78466 41.9246 9.32512 41.6172 8.93815 41.2298C8.55075 40.8429 8.24342 40.3833 8.03374 39.8775C7.82405 39.3717 7.71612 38.8295 7.71612 38.2819C7.71612 37.7343 7.82405 37.1921 8.03374 36.6863C8.24342 36.1805 8.55075 35.721 8.93815 35.334L9.06315 35.209C9.54344 34.718 9.86562 34.0944 9.98816 33.4185C10.1107 32.7427 10.028 32.0457 9.75065 31.4173C9.48656 30.8011 9.04806 30.2756 8.48912 29.9055C7.93018 29.5353 7.27521 29.3367 6.60482 29.334H6.25065C5.14558 29.334 4.08577 28.895 3.30437 28.1136C2.52297 27.3322 2.08398 26.2724 2.08398 25.1673C2.08398 24.0623 2.52297 23.0024 3.30437 22.221C4.08577 21.4396 5.14558 21.0007 6.25065 21.0007H6.43815C7.12772 20.9845 7.79649 20.7613 8.35752 20.36C8.91855 19.9588 9.34589 19.398 9.58398 18.7507C9.86131 18.1223 9.94403 17.4252 9.82149 16.7494C9.69895 16.0736 9.37677 15.45 8.89648 14.959L8.77148 14.834C8.38408 14.447 8.07675 13.9875 7.86707 13.4817C7.65738 12.9758 7.54946 12.4336 7.54946 11.8861C7.54946 11.3385 7.65738 10.7963 7.86707 10.2905C8.07675 9.78466 8.38408 9.32512 8.77148 8.93815C9.15846 8.55075 9.61799 8.24342 10.1238 8.03374C10.6296 7.82405 11.1718 7.71612 11.7194 7.71612C12.267 7.71612 12.8092 7.82405 13.315 8.03374C13.8208 8.24342 14.2803 8.55075 14.6673 8.93815L14.7923 9.06315C15.2833 9.54344 15.9069 9.86562 16.5828 9.98816C17.2586 10.1107 17.9556 10.028 18.584 9.75065H18.7507C19.3668 9.48656 19.8924 9.04806 20.2625 8.48912C20.6327 7.93018 20.8313 7.27521 20.834 6.60482V6.25065C20.834 5.14558 21.273 4.08577 22.0544 3.30437C22.8358 2.52297 23.8956 2.08398 25.0007 2.08398C26.1057 2.08398 27.1655 2.52297 27.9469 3.30437C28.7283 4.08577 29.1673 5.14558 29.1673 6.25065V6.43815C29.17 7.10854 29.3686 7.76352 29.7388 8.32245C30.109 8.88139 30.6345 9.3199 31.2507 9.58398C31.879 9.86131 32.5761 9.94403 33.2519 9.82149C33.9277 9.69895 34.5513 9.37677 35.0423 8.89648L35.1673 8.77148C35.5543 8.38408 36.0138 8.07675 36.5197 7.86707C37.0255 7.65738 37.5677 7.54946 38.1152 7.54946C38.6628 7.54946 39.205 7.65738 39.7108 7.86707C40.2166 8.07675 40.6762 8.38408 41.0632 8.77148C41.4506 9.15846 41.7579 9.61799 41.9676 10.1238C42.1773 10.6296 42.2852 11.1718 42.2852 11.7194C42.2852 12.267 42.1773 12.8092 41.9676 13.315C41.7579 13.8208 41.4506 14.2803 41.0632 14.6673L40.9382 14.7923C40.4579 15.2833 40.1357 15.9069 40.0131 16.5828C39.8906 17.2586 39.9733 17.9556 40.2507 18.584V18.7507C40.5147 19.3668 40.9532 19.8924 41.5122 20.2625C42.0711 20.6327 42.7261 20.8313 43.3965 20.834H43.7507C44.8557 20.834 45.9155 21.273 46.6969 22.0544C47.4783 22.8358 47.9173 23.8956 47.9173 25.0007C47.9173 26.1057 47.4783 27.1655 46.6969 27.9469C45.9155 28.7283 44.8557 29.1673 43.7507 29.1673H43.5632C42.8928 29.17 42.2378 29.3686 41.6789 29.7388C41.1199 30.109 40.6814 30.6345 40.4173 31.2507Z" stroke="#1E1E1E" stroke-width="2" stroke-linecap="round" stroke-linejoin="round"/>
</svg>
